<svg width="342" height="325" viewBox="0 0 342 325" fill="none" xmlns="http://www.w3.org/2000/svg">
<path d="M101.193 40.2907C101.843 39.2152 102.868 37.8037 100.893 38.0172C98.5351 38.2721 95.9351 40.6029 94.3296 41.9207C88.8101 46.4508 83.4585 51.4608 79.0589 57.1056C71.5902 66.6881 71.4664 81.2702 71.4664 92.8803C71.4664 101.806 71.574 110.731 71.0803 119.647C70.4187 131.598 68.3762 143.985 68.8069 155.936C69.401 172.422 78.8317 188.491 88.4529 201.341C99.465 216.049 114.856 229.926 133.536 233.641C148.792 236.675 163.853 228.148 176.603 220.88C187.298 214.783 197.397 205.574 205.428 196.258" stroke="white" stroke-width="3" stroke-linecap="round"/>
<path d="M78.0293 116.344C79.5784 116.203 80.7599 115.053 82.0186 114.264C88.153 110.418 98.4433 107.632 101.879 116.322C102.909 118.927 103.163 121.934 102.951 124.709C102.848 126.064 101.893 130.368 100.335 126.853C99.2002 124.294 97.1586 113.888 102.351 115.186" stroke="white" stroke-width="3" stroke-linecap="round"/>
<path d="M147.906 110.167C147.047 110.253 144.428 111.18 146.79 110.167C153.321 107.368 163.804 104.458 169.911 109.095C173.272 111.647 177.013 124.051 170.168 125.052C166.668 125.563 165.165 119.662 165.6 117.245C166.141 114.237 167.921 113.206 170.297 112.097" stroke="white" stroke-width="3" stroke-linecap="round"/>
<path d="M59.8847 188.923C63.2704 192.685 47.8173 202.888 47.2306 203.378C36.2175 212.575 24.8678 221.338 13.4291 229.995C10.8977 231.91 0.907417 237.645 1.89029 242.284C2.74106 246.3 46.376 230.299 51.9919 228.708C54.8748 227.891 58.1264 226.233 56.9249 230.338C52.8645 244.211 50.789 258.553 50.1045 272.997C49.712 281.281 48.994 292.835 54.4799 299.978C60.4834 307.796 66.8963 299.239 69.9007 293.78C74.2879 285.809 77.1769 277.152 80.9033 268.879C81.7593 266.979 82.2206 263.855 84.292 263.625C84.8225 263.566 85.265 264.173 85.536 264.633C87.4212 267.83 88.2768 271.535 89.7826 274.928C96.0279 288.999 103.753 302.979 115.262 313.49C121.168 318.883 136.561 329.895 140.206 316.493C144.726 299.876 141.848 280.957 142.887 263.818" stroke="white" stroke-width="3" stroke-linecap="round"/>
<path d="M191.144 222.896C190.307 239.644 182.175 257.086 176.174 272.397C172.961 280.591 166.259 292.121 167.166 301.372C167.793 307.771 182.397 294.537 182.651 294.316C188.119 289.571 193.44 284.227 198.393 278.96C202.159 274.955 207.055 266.921 212.27 264.268C216.741 261.993 215.943 286.997 216.066 288.911C216.235 291.536 216.818 314.962 224.195 311.388C227.01 310.025 229.239 306.332 230.693 303.989C235.268 296.621 238.645 288.574 242.447 280.804C244.424 276.763 249.785 260.4 255.959 268.493C260.924 275.002 263.833 283.319 270.758 288.225C277.834 293.238 278.614 285.745 278.929 280.204C279.21 275.264 278.115 254.841 285.471 253.437C288.142 252.927 294.95 257.633 295.937 258.198C304.604 263.163 313.376 268.548 323.519 269.823C328.207 270.412 332.005 270.031 335.98 267.485C342.36 263.399 339.598 256.617 336.516 251.164C332.502 244.06 322.431 231.094 317.857 225.426C306.29 211.097 294.061 197.123 280.859 184.268C275.693 179.238 270.296 174.49 264.109 170.778" stroke="white" stroke-width="3" stroke-linecap="round"/>
<path d="M232.838 113.255C237.316 109.041 248.214 116.013 250.897 119.068C257.519 126.604 257.665 138.201 253.192 146.692C247.101 158.255 236.591 164.203 224.731 168.075" stroke="white" stroke-width="3" stroke-linecap="round"/>
<path d="M205.814 22.9179C204.665 21.6248 204.541 21.6459 206.672 21.4595C212.431 20.9556 216.637 23.7923 220.656 28.0653C249.84 59.0932 266.807 99.3434 286.951 136.226C293.014 147.328 301.35 155.682 308.891 165.587C311.884 169.518 313.956 175.609 306.983 176.354C292.011 177.955 275.587 164.591 267.197 153.405" stroke="white" stroke-width="3" stroke-linecap="round"/>
<path d="M224.345 171.164C224.345 178.274 220.841 185.432 218.919 192.14C218.457 193.75 214.325 203.97 218.94 201.663" stroke="white" stroke-width="3" stroke-linecap="round"/>
<path d="M226.275 170.006C226.468 173.659 229.782 177.296 231.637 180.129C234.037 183.795 241.47 190.944 240.86 195.829C240.52 198.55 230.403 198.519 228.463 198.982C227.258 199.269 216.766 203.159 220.098 202.049" stroke="white" stroke-width="3" stroke-linecap="round"/>
<path d="M72.9023 95.311C72.9023 91.8682 76.0872 89.2167 78.4377 87.1319C85.4232 80.9361 92.8991 79.9998 100.91 84.4055" stroke="white" stroke-width="3" stroke-linecap="round"/>
<path d="M146.266 79.2007C146.754 78.7135 147.385 78.3848 148.056 78.2093C153.26 76.8483 160.397 77.2605 165.062 80.0406C167.354 81.4068 169.687 83.5366 171.547 85.397" stroke="white" stroke-width="3" stroke-linecap="round"/>
<path d="M70.1761 122.823C67.3481 125.112 62.2802 125.339 58.9952 126.967C54.1142 129.386 58.5349 137.645 59.6424 141.15C61.8388 148.1 65.4295 153.908 68.868 160.248C70.0669 162.459 72.0436 163.552 74.5273 163.938C84.172 165.439 94.5635 163.531 103.719 160.358C105.162 159.858 106.114 159.067 107.354 158.265C108.321 157.639 108.152 155.671 108.221 154.74C108.473 151.353 109.129 148.596 110.08 145.377" stroke="white" stroke-width="3" stroke-linecap="round"/>
<path d="M113.798 129.514C113.276 131.369 115.831 129.892 117.405 129.707C120.139 129.387 122.571 129.139 125.199 129.514" stroke="white" stroke-width="3" stroke-linecap="round"/>
<path d="M125.943 120.84C124.975 122.049 125.996 125.396 126.259 126.581C128.116 134.935 131.841 143.173 134.948 151.132C137.3 157.157 141.207 157.633 147.327 158.733C155.618 160.224 164.343 159.572 172.608 158.114C175.731 157.562 179.844 157.245 182.701 155.676C184.053 154.934 184.439 153.462 184.862 152.083C186.171 147.821 187.392 143.526 187.988 139.098C188.859 132.632 189.008 126.356 187.52 120.013C186.824 117.045 184.343 117.106 181.709 117.37" stroke="white" stroke-width="3" stroke-linecap="round"/>
<path d="M115.533 14.2634C115.428 14.5784 115.078 14.6612 114.789 14.7591C109.878 16.4271 101.7 15.1441 96.9164 15.3512C84.1237 15.9051 73.1551 17.6174 62.1346 24.2601C50.9362 31.01 41.5042 39.8446 32.7229 49.4721C21.8723 61.3683 13.2089 73.7105 8.70882 89.3073C7.76808 92.5679 6.88108 97.0302 6.39554 100.461C6.13876 102.275 5.11896 106.798 6.14769 108.695C6.64966 109.62 13.9369 98.5661 14.134 98.2851C14.8982 97.1955 24.669 82.4099 26.7056 85.1765C28.4673 87.5697 27.1948 93.2894 27.0636 95.958C26.7928 101.464 26.487 107.009 26.5266 112.523C26.5688 118.396 27.0447 124.353 29.0602 129.914C31.2083 135.84 34.7563 141.126 37.4321 146.809C40.3969 153.106 42.6043 159.781 44.8401 166.362C46.5818 171.488 47.6932 177.425 50.5131 182.114C56.4316 191.955 59.1873 172.808 60.0141 169.171" stroke="white" stroke-width="3" stroke-linecap="round"/>
<path d="M181.709 7.3236C181.235 7.92724 180.056 7.15752 179.451 7.02067C172.915 5.54182 166.244 4.31841 159.65 3.13767C150.238 1.45213 140.448 0.601524 131.698 5.28571C125.782 8.45292 120.417 12.9255 116.648 18.5045C112.567 24.5447 112.183 31.8062 112.435 38.8696C112.641 44.6577 113.357 50.3825 115.065 55.93C115.335 56.8078 116.426 61.0435 117.791 61.5067C120.226 62.3328 126.097 42.2226 126.906 40.3705C126.999 40.1581 132.042 29.827 133.213 31.2275C133.839 31.9771 133.784 34.0702 133.943 34.9177C134.558 38.1981 135.993 41.0209 137.949 43.7165C146.865 55.9985 161.561 62.4447 170.528 74.8769C175.524 81.803 180.036 89.5009 183.651 97.2386C189.24 109.204 191.279 121.854 192.394 134.912C193.079 142.933 192.324 152.454 198.26 158.788C200.177 160.834 203.013 163.124 206.012 163.016C211.462 162.819 215.036 155.816 217.055 151.725C222.516 140.661 225.06 127.956 224.849 115.648C224.786 111.987 223.781 108.442 223.348 104.977" stroke="white" stroke-width="3" stroke-linecap="round"/>
<path d="M83.0644 129.267C81.2343 127.803 76.2315 132.063 75.8767 132.489" stroke="white" stroke-width="3" stroke-linecap="round"/>
<path d="M88.0214 130.506C85.5701 131.486 84.3628 136.496 83.3123 138.685" stroke="white" stroke-width="3" stroke-linecap="round"/>
<path d="M169.069 131.745C169.069 129.254 169.537 136.705 169.812 139.181" stroke="white" stroke-width="3" stroke-linecap="round"/>
<path d="M176.256 128.275C178.661 127.535 181.479 129.964 183.444 131.002" stroke="white" stroke-width="3" stroke-linecap="round"/>
<path d="M122.965 197.331C122.965 198.812 129.777 199.235 130.282 199.284C140.982 200.334 149.915 196.111 158.896 190.879" stroke="white" stroke-width="3" stroke-linecap="round"/>
<path d="M120.244 169.517C118.25 170.935 114.224 167.894 112.936 166.585C111.913 165.545 110.596 163.478 111.542 161.959C112.175 160.942 114.08 161.864 114.817 162.173C117.581 163.333 120.165 164.695 123.104 165.412C125.712 166.049 128.286 166.142 130.941 166.328C131.692 166.38 133.664 166.745 133.014 167.958C132.068 169.724 129.792 170.346 127.959 170.368C122.577 170.432 118.085 167.579 113.129 165.927C112.151 165.601 111.98 165.003 113.015 164.476C114.684 163.626 116.917 165.499 118.328 166.127C121.912 167.726 125.83 167.16 129.568 167.908C130.818 168.158 131.824 167.972 133.057 167.972C133.403 167.972 131.539 168.305 132.085 168.487" stroke="white" stroke-width="3" stroke-linecap="round"/>
<path d="M101.117 123.814C101.171 123.868 101.028 123.69 100.987 123.626C100.15 122.307 100.147 120.092 100.04 118.644C99.9518 117.457 100.135 113.985 101.363 117.009C102.22 119.12 102.183 121.954 101.349 124.074C101.096 124.716 100.237 126.031 99.3817 125.246C97.8835 123.871 97.9059 120.295 98.08 118.477C98.1147 118.115 98.9088 114.456 99.9457 115.845C101.025 117.29 100.956 119.813 100.806 121.493C100.624 123.527 99.1551 127.052 98.1234 123.308C97.8932 122.473 97.1056 113.573 99.2949 114.63C101.227 115.563 101.782 120.925 101.45 122.758C101.242 123.91 99.4688 124.967 100.466 123.684" stroke="white" stroke-width="3" stroke-linecap="round"/>
<path d="M168.805 119.909C168.674 120.696 168.31 118.384 168.197 117.595C168.015 116.324 167.459 113.908 168.602 112.88C169.656 111.932 170.544 113.568 170.786 114.333C171.261 115.83 171.285 117.492 170.909 119.012C170.74 119.696 169.345 123.795 167.966 122.397C166.537 120.947 165.92 113.312 168.733 112.793C170.885 112.396 171.201 119.017 171.083 120.133C170.564 125.027 167.747 118.031 167.561 116.452C167.413 115.198 167.183 113.36 167.778 112.171C168.721 110.285 170.17 114.228 170.295 114.652C170.812 116.412 171.08 118.482 170.302 120.213C169.765 121.408 169.316 121.591 168.675 120.95" stroke="white" stroke-width="3" stroke-linecap="round"/>
</svg>
